<mxfile host="app.diagrams.net" modified="2023-05-10T10:18:38.333Z" agent="Mozilla/5.0 (Windows NT 10.0; Win64; x64) AppleWebKit/537.36 (KHTML, like Gecko) Chrome/113.0.0.0 Safari/537.36 Edg/113.0.1774.35" etag="Pxx8deFzCgWPWRcdDIu2" version="21.2.9" type="github">
  <diagram name="第 1 页" id="c82eBmJTDx3f6tGzba_7">
    <mxGraphModel dx="842" dy="512" grid="1" gridSize="10" guides="1" tooltips="1" connect="1" arrows="1" fold="1" page="1" pageScale="1" pageWidth="1169" pageHeight="827" math="0" shadow="0">
      <root>
        <mxCell id="0" />
        <mxCell id="1" parent="0" />
        <mxCell id="V7pOFRDUSgTwyFyD868L-3" style="edgeStyle=orthogonalEdgeStyle;rounded=0;orthogonalLoop=1;jettySize=auto;html=1;entryX=0;entryY=0.5;entryDx=0;entryDy=0;" edge="1" parent="1" source="V7pOFRDUSgTwyFyD868L-1" target="V7pOFRDUSgTwyFyD868L-2">
          <mxGeometry relative="1" as="geometry" />
        </mxCell>
        <mxCell id="V7pOFRDUSgTwyFyD868L-1" value="秒杀用户" style="shape=umlActor;verticalLabelPosition=bottom;verticalAlign=top;html=1;outlineConnect=0;" vertex="1" parent="1">
          <mxGeometry x="110" y="55" width="30" height="60" as="geometry" />
        </mxCell>
        <mxCell id="V7pOFRDUSgTwyFyD868L-5" style="edgeStyle=orthogonalEdgeStyle;rounded=0;orthogonalLoop=1;jettySize=auto;html=1;exitX=1;exitY=0.5;exitDx=0;exitDy=0;entryX=0;entryY=0.5;entryDx=0;entryDy=0;" edge="1" parent="1" source="V7pOFRDUSgTwyFyD868L-2" target="V7pOFRDUSgTwyFyD868L-4">
          <mxGeometry relative="1" as="geometry" />
        </mxCell>
        <mxCell id="V7pOFRDUSgTwyFyD868L-2" value="&lt;div style=&quot;&quot;&gt;&lt;font face=&quot;JetBrains Mono, monospace&quot;&gt;VoucherOrderServiceImpl&lt;/font&gt;&lt;br&gt;&lt;/div&gt;&lt;div style=&quot;font-family: &amp;quot;JetBrains Mono&amp;quot;, monospace;&quot;&gt;&lt;span style=&quot;background-color: rgb(255, 255, 255);&quot;&gt;&lt;font style=&quot;font-size: 12px;&quot;&gt;/seckill/{id}&lt;/font&gt;&lt;/span&gt;&lt;/div&gt;&lt;div style=&quot;font-family: &amp;quot;JetBrains Mono&amp;quot;, monospace;&quot;&gt;&lt;span style=&quot;background-color: rgb(255, 255, 255);&quot;&gt;方法：&lt;/span&gt;seckillVoucher()&lt;/div&gt;" style="rounded=1;whiteSpace=wrap;html=1;" vertex="1" parent="1">
          <mxGeometry x="190" y="40" width="170" height="90" as="geometry" />
        </mxCell>
        <mxCell id="V7pOFRDUSgTwyFyD868L-9" style="edgeStyle=orthogonalEdgeStyle;rounded=0;orthogonalLoop=1;jettySize=auto;html=1;exitX=0.5;exitY=1;exitDx=0;exitDy=0;entryX=0.5;entryY=0;entryDx=0;entryDy=0;" edge="1" parent="1" source="V7pOFRDUSgTwyFyD868L-4" target="V7pOFRDUSgTwyFyD868L-8">
          <mxGeometry relative="1" as="geometry" />
        </mxCell>
        <mxCell id="V7pOFRDUSgTwyFyD868L-4" value="Lua脚本seckill.lua&lt;br&gt;1. 判断Redis库存信号量是否大于0？&lt;br&gt;2. 前往Redis的Set中查询该用户是否已经购买过？" style="rounded=1;whiteSpace=wrap;html=1;" vertex="1" parent="1">
          <mxGeometry x="410" y="30" width="180" height="110" as="geometry" />
        </mxCell>
        <mxCell id="V7pOFRDUSgTwyFyD868L-10" value="将秒杀结果返回给用户" style="edgeStyle=orthogonalEdgeStyle;rounded=0;orthogonalLoop=1;jettySize=auto;html=1;exitX=0;exitY=0.5;exitDx=0;exitDy=0;" edge="1" parent="1" source="V7pOFRDUSgTwyFyD868L-8" target="V7pOFRDUSgTwyFyD868L-1">
          <mxGeometry x="-0.223" y="-9" relative="1" as="geometry">
            <mxPoint as="offset" />
          </mxGeometry>
        </mxCell>
        <mxCell id="V7pOFRDUSgTwyFyD868L-17" value="是" style="edgeStyle=orthogonalEdgeStyle;rounded=0;orthogonalLoop=1;jettySize=auto;html=1;exitX=0.5;exitY=1;exitDx=0;exitDy=0;entryX=0.5;entryY=0;entryDx=0;entryDy=0;" edge="1" parent="1" source="V7pOFRDUSgTwyFyD868L-8" target="V7pOFRDUSgTwyFyD868L-11">
          <mxGeometry x="0.0244" y="10" relative="1" as="geometry">
            <mxPoint as="offset" />
          </mxGeometry>
        </mxCell>
        <mxCell id="V7pOFRDUSgTwyFyD868L-8" value="是否有购买资格？" style="rhombus;whiteSpace=wrap;html=1;" vertex="1" parent="1">
          <mxGeometry x="425" y="179" width="150" height="70" as="geometry" />
        </mxCell>
        <mxCell id="V7pOFRDUSgTwyFyD868L-18" style="edgeStyle=orthogonalEdgeStyle;rounded=0;orthogonalLoop=1;jettySize=auto;html=1;exitX=0.5;exitY=1;exitDx=0;exitDy=0;entryX=0.5;entryY=0;entryDx=0;entryDy=0;" edge="1" parent="1" source="V7pOFRDUSgTwyFyD868L-11" target="V7pOFRDUSgTwyFyD868L-13">
          <mxGeometry relative="1" as="geometry" />
        </mxCell>
        <mxCell id="V7pOFRDUSgTwyFyD868L-11" value="异步线程任务&lt;font face=&quot;Georgia&quot;&gt;VoucherOrderHandler&lt;br&gt;读取消息队列&lt;br&gt;&lt;/font&gt;" style="rounded=1;whiteSpace=wrap;html=1;" vertex="1" parent="1">
          <mxGeometry x="425" y="290" width="150" height="66" as="geometry" />
        </mxCell>
        <mxCell id="V7pOFRDUSgTwyFyD868L-21" style="edgeStyle=orthogonalEdgeStyle;rounded=0;orthogonalLoop=1;jettySize=auto;html=1;exitX=0.5;exitY=1;exitDx=0;exitDy=0;entryX=0.5;entryY=0;entryDx=0;entryDy=0;" edge="1" parent="1" source="V7pOFRDUSgTwyFyD868L-13" target="V7pOFRDUSgTwyFyD868L-20">
          <mxGeometry relative="1" as="geometry" />
        </mxCell>
        <mxCell id="V7pOFRDUSgTwyFyD868L-13" value="被Redisson分布式锁锁住的写库方法&lt;br&gt;&lt;div&gt;&lt;font face=&quot;Georgia&quot;&gt;handleVoucherOrder()&lt;/font&gt;&lt;/div&gt;" style="rounded=1;whiteSpace=wrap;html=1;" vertex="1" parent="1">
          <mxGeometry x="430" y="390" width="140" height="60" as="geometry" />
        </mxCell>
        <mxCell id="V7pOFRDUSgTwyFyD868L-19" value="数据库" style="shape=datastore;whiteSpace=wrap;html=1;" vertex="1" parent="1">
          <mxGeometry x="270" y="480" width="70" height="80" as="geometry" />
        </mxCell>
        <mxCell id="V7pOFRDUSgTwyFyD868L-23" style="edgeStyle=orthogonalEdgeStyle;rounded=0;orthogonalLoop=1;jettySize=auto;html=1;exitX=0;exitY=0.5;exitDx=0;exitDy=0;entryX=1;entryY=0.596;entryDx=0;entryDy=0;entryPerimeter=0;" edge="1" parent="1" source="V7pOFRDUSgTwyFyD868L-20" target="V7pOFRDUSgTwyFyD868L-19">
          <mxGeometry relative="1" as="geometry" />
        </mxCell>
        <mxCell id="V7pOFRDUSgTwyFyD868L-20" value="由当前类的代理类对象调用的写库方法&lt;br&gt;&lt;font face=&quot;Georgia&quot;&gt;proxy.createVoucherOrder()&lt;/font&gt;" style="rounded=1;whiteSpace=wrap;html=1;" vertex="1" parent="1">
          <mxGeometry x="415" y="490" width="170" height="75" as="geometry" />
        </mxCell>
      </root>
    </mxGraphModel>
  </diagram>
</mxfile>
